<svg xmlns:dc="http://purl.org/dc/elements/1.1/" xmlns:cc="http://creativecommons.org/ns#" xmlns:rdf="http://www.w3.org/1999/02/22-rdf-syntax-ns#" xmlns:svg="http://www.w3.org/2000/svg" xmlns="http://www.w3.org/2000/svg" xmlns:sodipodi="http://sodipodi.sourceforge.net/DTD/sodipodi-0.dtd" xmlns:inkscape="http://www.inkscape.org/namespaces/inkscape" fill="#000000" version="1.1" x="0px" y="0px" viewBox="0 0 512 640" style="enable-background:new 0 0 512 512;" xml:space="preserve"><path style="color:#000000;font-style:normal;font-variant:normal;font-weight:normal;font-stretch:normal;font-size:medium;line-height:normal;font-family:sans-serif;font-variant-ligatures:normal;font-variant-position:normal;font-variant-caps:normal;font-variant-numeric:normal;font-variant-alternates:normal;font-feature-settings:normal;text-indent:0;text-align:start;text-decoration:none;text-decoration-line:none;text-decoration-style:solid;text-decoration-color:#000000;letter-spacing:normal;word-spacing:normal;text-transform:none;writing-mode:lr-tb;direction:ltr;text-orientation:mixed;dominant-baseline:auto;baseline-shift:baseline;text-anchor:start;white-space:normal;shape-padding:0;clip-rule:nonzero;display:inline;overflow:visible;visibility:visible;opacity:1;isolation:auto;mix-blend-mode:normal;color-interpolation:sRGB;color-interpolation-filters:linearRGB;solid-color:#000000;solid-opacity:1;vector-effect:none;fill:#000000;fill-opacity:1;fill-rule:nonzero;stroke:none;stroke-width:11.66353416;stroke-linecap:square;stroke-linejoin:round;stroke-miterlimit:4;stroke-dasharray:none;stroke-dashoffset:0;stroke-opacity:1;paint-order:normal;color-rendering:auto;image-rendering:auto;shape-rendering:auto;text-rendering:auto;enable-background:accumulate" d="M 255.9995,25.6017 C 128.8229,25.6017 25.6,128.8247 25.6,256.0013 c 0,60.8172 23.6165,116.1447 62.1582,157.3368 l 0.1272,0.1342 c 42.048,44.8675 101.8224,72.926 168.1155,72.926 66.293,0 126.0657,-28.0585 168.1134,-72.926 l 0.1271,-0.1342 C 462.7835,372.146 486.4,316.8185 486.4,256.0013 486.4,128.8247 383.1785,25.6017 256.0019,25.6017 Z m 0,11.669 c 120.873,0 218.7365,97.8575 218.7365,218.7306 0,54.1111 -19.6226,103.6011 -52.1319,141.7742 -10.3371,-68.0159 -61.3899,-122.7212 -127.4538,-138.4787 27.3053,-14.2015 46.0042,-42.7627 46.0046,-75.6029 0,-46.9482 -38.2092,-85.1585 -85.1572,-85.1589 -46.9484,0 -85.1579,38.2107 -85.1568,85.1589 0,32.8408 18.6999,61.4017 46.0059,75.6029 C 150.7848,275.054 99.733,329.759 89.3952,397.7737 56.8862,359.6006 37.2615,310.112 37.2615,256.0013 c 0,-120.8731 97.8646,-218.7306 218.738,-218.7306 z m 0,75.3875 c 39.3146,0 71.0345,31.7208 71.0341,71.0357 0,39.0665 -31.325,70.6189 -70.2951,71.0154 -0.2436,0 -0.4894,0 -0.7351,0 -0.2472,0 -0.4937,0 -0.7409,0 -38.9714,-0.3958 -70.2965,-31.9485 -70.2968,-71.0154 -4e-4,-39.3149 31.7187,-71.0353 71.0338,-71.0357 z m -1.1204,156.178 c 0.3735,0 0.7457,0 1.1204,0 0.3764,0 0.7507,0 1.126,0 80.8938,0.5862 146.6964,63.2317 152.6345,142.7742 -39.4997,39.0322 -93.7929,63.1271 -153.7588,63.1271 -59.9655,0 -114.2604,-24.0949 -153.7601,-63.1271 5.9377,-79.5439 71.7424,-142.1901 152.638,-142.7742 z"/><text x="0" y="527" fill="#000000" font-size="5px" font-weight="bold" font-family="'Helvetica Neue', Helvetica, Arial-Unicode, Arial, Sans-serif">Created by sagar ghate</text><text x="0" y="532" fill="#000000" font-size="5px" font-weight="bold" font-family="'Helvetica Neue', Helvetica, Arial-Unicode, Arial, Sans-serif">from the Noun Project</text></svg>